<!-- icon666.com - MILLIONS vector ICONS FREE --><svg id="Layer_5" enable-background="new 0 0 64 64" viewBox="0 0 64 64" xmlns="http://www.w3.org/2000/svg"><g><g><g><path d="m62 3v2c0 .55-.45 1-1 1h-1-4-24-4-20-4-1c-.55 0-1-.45-1-1v-2c0-.55.45-1 1-1h58c.55 0 1 .45 1 1z" fill="#ccd1d9"></path></g><g><path d="m8 6h20v14h-20z" fill="#e6e9ed"></path></g><g><path d="m32 6h24v14h-24z" fill="#e6e9ed"></path></g><g><path d="m56 20v14h-4v-8h-16v8h-12v-14h4 4 10 4z" fill="#e6e9ed"></path></g><g><path d="m24 20v14h-8v-14h4z" fill="#b4dd7f"></path></g><g><path d="m8 20h8v14h-8z" fill="#b4dd7f"></path></g><g><path d="m36 26h16v8h-16z" fill="#b4dd7f"></path></g><g><path d="m56 34h-4-16-12-8-8-4v28h56v-28z" fill="#ecc19c"></path></g><g><path d="m30 38h-10-10c-1.1 0-2 .9-2 2v22h12 12v-22c0-1.1-.9-2-2-2z" fill="#d3a06c"></path></g><g><path d="m54 38h-16c-1.1 0-2 .9-2 2v6 8 8h20v-8-8-6c0-1.1-.9-2-2-2z" fill="#cf9e76"></path></g><g><path d="m50 54v2c0 1.1-.9 2-2 2h-4c-1.1 0-2-.9-2-2v-2z" fill="#fcd770"></path></g><g><path d="m50 46v2c0 1.1-.9 2-2 2h-4c-1.1 0-2-.9-2-2v-2z" fill="#fcd770"></path></g><g><path d="m50 38v2c0 1.1-.9 2-2 2h-4c-1.1 0-2-.9-2-2v-2z" fill="#fcd770"></path></g><g><path d="m8 20v14h-4v-28h4z" fill="#ccd1d9"></path></g><g><path d="m28 6h4v14h-4z" fill="#ccd1d9"></path></g><g><path d="m60 6v28h-4v-14-14z" fill="#ccd1d9"></path></g><g><path d="m50 14v2c0 2.21-1.79 4-4 4h-4c-2.21 0-4-1.79-4-4v-2h6z" fill="#969faa"></path></g><g><circle cx="44" cy="12" fill="#fcd770" r="2"></circle></g><g><path d="m24 14v2c0 2.21-1.79 4-4 4h-4c-2.21 0-4-1.79-4-4v-2h6z" fill="#969faa"></path></g><g><circle cx="18" cy="12" fill="#fcd770" r="2"></circle></g></g><g><path d="m61 1h-58c-1.103 0-2 .897-2 2v2c0 1.103.897 2 2 2v56h58v-56c1.103 0 2-.897 2-2v-2c0-1.103-.897-2-2-2zm-54 6v26h-2v-26zm46 26v-8h-18v8h-10v-12h17 4 9v12zm-2 0h-14v-6h14zm-42-12h6v12h-6zm4-5v-1h10v1c0 1.654-1.346 3-3 3h-4c-1.654 0-3-1.346-3-3zm4-4c0-.552.448-1 1-1s1 .448 1 1-.448 1-1 1-1-.448-1-1zm0 9h3 3v12h-6zm22-5v-1h10v1c0 1.654-1.346 3-3 3h-4c-1.654 0-3-1.346-3-3zm4-4c0-.552.448-1 1-1s1 .448 1 1-.448 1-1 1-1-.448-1-1zm12 7h-5.026c.635-.838 1.026-1.87 1.026-3v-3h-4.184c.112-.314.184-.648.184-1 0-1.654-1.346-3-3-3s-3 1.346-3 3c0 .352.072.686.184 1h-4.184v3c0 1.13.391 2.162 1.026 3h-5.026v-12h22zm-24 0h-2v-12h2zm-4 0h-3.026c.635-.838 1.026-1.87 1.026-3v-3h-4.184c.112-.314.184-.648.184-1 0-1.654-1.346-3-3-3s-3 1.346-3 3c0 .352.072.686.184 1h-4.184v3c0 1.13.391 2.162 1.026 3h-3.026v-12h18zm4 42h-10v-10h4v-2h-4v-10h9c.552 0 1 .448 1 1zm-12-12h-4v2h4v10h-10v-21c0-.552.448-1 1-1h9zm24-10h6v1c0 .552-.448 1-1 1h-4c-.552 0-1-.448-1-1zm1 4h4c1.654 0 3-1.346 3-3v-1h3c.552 0 1 .448 1 1v5h-18v-5c0-.552.448-1 1-1h3v1c0 1.654 1.346 3 3 3zm-1 4h6v1c0 .552-.448 1-1 1h-4c-.552 0-1-.448-1-1zm-6 0h4v1c0 1.654 1.346 3 3 3h4c1.654 0 3-1.346 3-3v-1h4v6h-18zm6 8h6v1c0 .552-.448 1-1 1h-4c-.552 0-1-.448-1-1zm-6 0h4v1c0 1.654 1.346 3 3 3h4c1.654 0 3-1.346 3-3v-1h4v6h-18zm20 6v-21c0-1.654-1.346-3-3-3h-16c-1.654 0-3 1.346-3 3v21h-2v-21c0-1.654-1.346-3-3-3h-20c-1.654 0-3 1.346-3 3v21h-2v-26h54v26zm2-28h-2v-26h2zm-56-28v-2h58l.002 2z"></path><path d="m47 29h2v2h-2z"></path><path d="m39 29h2v2h-2z"></path><path d="m43 29h2v2h-2z"></path><path d="m11 29h2v2h-2z"></path><path d="m19 23h2v8h-2z"></path></g></g></svg>